<svg xmlns="http://www.w3.org/2000/svg" viewBox="0 0 400 184.06"><defs><style>.cls-1{fill:#2b3b42;}.cls-2{fill:#de0048;}.cls-3{fill:#fff;}.cls-4{fill:#ee8600;}.cls-5{fill:#eb7915;}.cls-6{fill:#004d9c;}.cls-7{fill:#0051a0;}</style></defs><title>EFYECH400</title><g id="Capa_2" data-name="Capa 2"><g id="Capa_1-2" data-name="Capa 1"><path class="cls-1" d="M48.25,111.8,21.73,155.86c-4.48,7.42-7.87,9.72-13.11,9.72-3.38,0-6.83-1.26-8.62-3.49l2.63-3.86A8.11,8.11,0,0,0,9,161.06c3.1,0,5.52-1.56,8.35-6.31L20,150.59l-9-38.79h5L23.39,145,43.21,111.8Z"/><path class="cls-1" d="M62.74,128.86H88.61a8.82,8.82,0,0,0,.08-1.41c0-7.42-4.63-11.5-11.4-11.5-7.32,0-12.77,5.12-14.55,12.91m-.5,3.93a13.56,13.56,0,0,0-.06,1.56c0,7.79,4.15,12.16,12.49,12.16a15.8,15.8,0,0,0,11.87-4.89l2.22,3.78c-3.38,3.64-8.85,5.79-14.51,5.79-10.49,0-16.91-6.38-16.91-16.62,0-13.27,8.5-23.07,20.08-23.07,9.61,0,15.82,6.16,15.82,16.54a26.73,26.73,0,0,1-.48,4.75Z"/><path class="cls-1" d="M133.13,124.18a25.21,25.21,0,0,1-.42,4.46l-4.13,22.18h-4.91l4.14-22.26a22,22,0,0,0,.35-3.56c0-5.57-3.12-8.75-9.39-8.75-7.74,0-13,4.53-14.76,13.65l-3.89,20.92H95.23l7.18-39h4.69L105.93,118c3.52-4.45,8.48-6.53,14.22-6.53,8.22,0,13,4.75,13,12.68"/><path class="cls-1" d="M188.25,117.33a1.4,1.4,0,0,1-1.37,1,3.53,3.53,0,0,1-.51-.09,28.53,28.53,0,0,0-7.68-1.05c-5.36,0-8.06,1.87-9.49,6.4a40,40,0,0,0-1.36,10c0,2.67.54,4.61,1.73,5.91s3.33,1.94,6.33,1.94a29.52,29.52,0,0,0,7.9-1.06c.15,0,.32-.08.61-.08a1,1,0,0,1,1.05,1.06l.45,6v.24a1.66,1.66,0,0,1-1.13,1.62c-1.94,1.14-7.75,2.19-13.85,2.19-6.31,0-10.61-1.3-13.39-3.81-3-2.83-4-7.12-4-12.94,0-5.66,1.06-12.78,3.47-17.72,3.17-6.39,8.81-9.71,19-9.71,6.1,0,11.6,1,13.33,2.19a1.32,1.32,0,0,1,.83,1.21,2,2,0,0,1-.08.64Z"/><path class="cls-1" d="M229,123.64l-3,26a1.35,1.35,0,0,1-1.35,1.22H213c-.76,0-1.21-.41-1.21-1v-.17l3-25.72a26.77,26.77,0,0,0,.32-3.64c0-2-.77-3.24-3.18-3.24a47.7,47.7,0,0,0-5.42.4l-3.68,32.2a1.3,1.3,0,0,1-1.36,1.22H189.81a1,1,0,0,1-1.12-1v-.17L195,94c.16-1.29.61-2.09,1.88-2.34L207.66,90c.22,0,.37-.08.53-.08a1.25,1.25,0,0,1,1.35,1.38.29.29,0,0,1-.08.24l-1.35,12-1.43,5.25a45.87,45.87,0,0,1,10.46-1.45c3.84,0,7,.57,9.19,2.11s3.23,3.55,3.23,7.28a52.37,52.37,0,0,1-.52,7"/><path class="cls-1" d="M251.53,102c-.23,1.94-1.13,2.59-2.87,2.59h-8.87c-1.52,0-2.27-.49-2.27-1.94V102l1.14-9.47c.22-1.94,1.05-2.59,2.77-2.59h8.89c1.59,0,2.32.57,2.32,2a2.32,2.32,0,0,1-.06.64Zm-5.34,47.57a1.42,1.42,0,0,1-1.43,1.2h-11.6a1,1,0,0,1-1.13-1.05v-.15l4.44-38.6a1.36,1.36,0,0,1,1.36-1.21h11.6a1,1,0,0,1,1.11,1V111Z"/><path class="cls-1" d="M274.55,148.63a2,2,0,0,1-1.05,1.62,22,22,0,0,1-8.21,1.22c-4.15,0-7-1.14-8.88-3.08a11.1,11.1,0,0,1-2.63-7.69,64.54,64.54,0,0,1,.59-6.79L259,93.78c.15-1.29.3-1.86,1.58-2.1L271.62,90h.45c.75,0,1.34.33,1.34,1.21v.32l-4.81,41.27c-.08,1-.52,3.31-.52,5a3.81,3.81,0,0,0,.52,2.27,2.31,2.31,0,0,0,1.82.81,9.38,9.38,0,0,0,2.55-.25h.31c.74,0,.9.57.9,1.14l.37,6.79Z"/><path class="cls-1" d="M298,116.84c-5.49,0-6.56,6-6.77,11.33,5.35-.33,12.12.08,12.12-5.82,0-3.73-2-5.51-5.35-5.51m-7.51,18.53a5.18,5.18,0,0,0-.09,1.13,4.58,4.58,0,0,0,3,4.69,18,18,0,0,0,6.7,1,38.62,38.62,0,0,0,10.23-1.85c.09,0,.09-.09.14-.09.62,0,1.15.56,1.22,1.54l.52,5.17v.25A1.85,1.85,0,0,1,311.2,149a41,41,0,0,1-15.81,2.84c-11.66,0-18.52-4.53-18.52-17.39,0-9.15,2.88-16.83,5.35-20.39,3.62-5.26,10.17-6.88,16.64-6.88,10.61,0,17.69,3,17.69,14.17,0,13.66-11.59,13.5-26,14"/><path class="cls-1" d="M356.8,124.61l-2.85,25a1.32,1.32,0,0,1-1.36,1.22H340.93a1,1,0,0,1-1.14-1v-.17l2.87-25.4a20.49,20.49,0,0,0,.29-2.91,5.08,5.08,0,0,0-.61-3c-.59-.9-1.64-1.21-3.07-1.21a39.49,39.49,0,0,0-4.74.4l-3.69,32.11a1.3,1.3,0,0,1-1.36,1.22H317.81a1,1,0,0,1-1.12-1v-.17l4.14-36.07c.3-2.92,3.07-3.73,7.91-4.69a69.08,69.08,0,0,1,13.77-1.55c5.1,0,9.17.57,11.81,2.75,2,1.55,3.08,4,3.08,7.77a67.84,67.84,0,0,1-.6,6.8"/><path class="cls-1" d="M384.94,118.78c-.68-1.13-1.88-1.62-3.84-1.62-4.73,0-5.63,2.84-6.55,10.36a70.9,70.9,0,0,0-.82,8.81c0,2.11.23,3.49.9,4.45a4.57,4.57,0,0,0,3.61,1.22c4.67,0,5.72-2.67,6.62-9.71a75.21,75.21,0,0,0,.84-9.22c0-1.94-.15-3.4-.76-4.29m12.51,21c-2.57,7.28-7.92,12.05-20.26,12.05-5.72,0-9.71-1.05-12.43-2.91-4.13-2.75-5.33-7.36-5.33-13,0-5.82,1.12-13.91,3.45-18.77,2.94-6,8.37-9.86,19.36-9.86,6.4,0,10.61,1.29,13.32,3.47C399,113.6,400,118,400,123.32a54.8,54.8,0,0,1-2.55,16.5"/><path class="cls-1" d="M55,17a1.58,1.58,0,0,1-1.58,1.42H25L23.3,32.57H50.45c.79,0,1.31.39,1.31,1.15v.19L50.52,44.75a1.5,1.5,0,0,1-1.59,1.42H21.8L20,61.57H48.5a1.2,1.2,0,0,1,1.32,1.24V63L48.58,73.64A1.58,1.58,0,0,1,47,75.08H2.16A1.36,1.36,0,0,1,.75,73.74v-.19L8.44,6.33a1.78,1.78,0,0,1,1.77-1.52H54.94a1.21,1.21,0,0,1,1.34,1.24v.19Z"/><path class="cls-1" d="M101.39,44.27,98,73.65a1.54,1.54,0,0,1-1.61,1.42H82.73c-.9,0-1.34-.47-1.34-1.24v-.18l3.38-29.86a23.19,23.19,0,0,0,.35-3.42,5.89,5.89,0,0,0-.72-3.51c-.7-1-1.94-1.43-3.63-1.43a45.58,45.58,0,0,0-5.55.48L70.87,73.65a1.5,1.5,0,0,1-1.58,1.42H55.57a1.15,1.15,0,0,1-1.31-1.24v-.18l4.86-42.4c.35-3.42,3.63-4.38,9.29-5.51a81.53,81.53,0,0,1,16.16-1.82c6,0,10.8.67,13.9,3.23,2.3,1.81,3.63,4.67,3.63,9.14,0,2.57-.45,5.41-.71,8"/><path class="cls-1" d="M162.58,15.08c-.17.86-.34,1.34-1.06,1.34H161a28.67,28.67,0,0,0-5.23-.58c-3.88,0-5,1.14-5.38,4.66l-.55,4.66h10.35a1.2,1.2,0,0,1,1.33,1.24.31.31,0,0,1-.09.19l-1.06,9.59a1.59,1.59,0,0,1-1.59,1.44H148.43L143.85,76C142,91.9,133,95,122.79,95a40.82,40.82,0,0,1-7.16-.47c-.88-.19-1.68-.28-1.68-1.62a2,2,0,0,1,.09-.66l1-6.75c.16-1.52.69-1.9,2.29-2,1.41,0,.79-.1,2.48-.1,3.72,0,6.8-.57,7.6-7.51l4.33-38.31h-6.8a1.21,1.21,0,0,1-1.33-1.24v-.2l1.15-9.59a1.51,1.51,0,0,1,1.59-1.43h6.81l.61-5.61c1.24-10.55,6.91-16,17.95-16,7.26,0,11.23,1.34,12.29,1.72a1.09,1.09,0,0,1,.81,1.14,5.22,5.22,0,0,1-.1.67Z"/><path class="cls-1" d="M196.73,8.15a1,1,0,0,1-.54.85L179.74,19.36a.9.9,0,0,1-.71.19,1,1,0,0,1-.89-.47l-3.53-6.28a1.5,1.5,0,0,1-.17-.57,1.31,1.31,0,0,1,.53-1L191.06.35a1.55,1.55,0,0,1,.71-.19.85.85,0,0,1,.8.47l4.06,7a1.11,1.11,0,0,1,.1.57M178,53.3c-1.95.29-3.72.76-4.78,2.48A9.39,9.39,0,0,0,172,60.43a5,5,0,0,0,1.23,3.71,6.42,6.42,0,0,0,4.59,1.52,26.75,26.75,0,0,0,5.93-.76l1.41-12.83Zm24.4-9.22L199.91,65c-.89,7.51-4.07,8.55-10.16,10.07a59.08,59.08,0,0,1-13.37,1.24c-5.65,0-11.23-.48-15-2.76C157.9,71.47,156,68,156,62a19.78,19.78,0,0,1,2.49-9.71c3.09-5.32,8.39-6.65,12.47-7.31L186,42.46s.27-2.28.27-3.42a2.85,2.85,0,0,0-1.24-2.67c-1.06-.65-3-.94-5.48-.94-5.31,0-12.57,2.09-14.42,2.65a1.81,1.81,0,0,1-.71.11.91.91,0,0,1-1-.86l-.72-7.6v-.29a2,2,0,0,1,1.33-1.9,65,65,0,0,1,20.69-3.62c6.1,0,10.44,1,13.36,2.86,3.36,2.18,4.77,5.61,4.77,10.08a63.38,63.38,0,0,1-.53,7.22"/><path class="cls-1" d="M244.92,35.72A1.63,1.63,0,0,1,243.33,37a4.83,4.83,0,0,1-.62-.09,32.24,32.24,0,0,0-9-1.25c-6.27,0-9.45,2.2-11.12,7.52A45.84,45.84,0,0,0,221,54.92c0,3.13.62,5.42,2.05,6.93s3.88,2.29,7.42,2.29a35.51,35.51,0,0,0,9.29-1.23,6.32,6.32,0,0,1,.7-.1,1.15,1.15,0,0,1,1.23,1.24l.54,7v.29a1.93,1.93,0,0,1-1.33,1.9c-2.3,1.32-9.11,2.56-16.26,2.56-7.45,0-12.47-1.52-15.75-4.46C205.3,68,204.17,63,204.17,56.15c0-6.65,1.22-15,4-20.82,3.73-7.51,10.36-11.4,22.3-11.4,7.16,0,13.62,1.23,15.64,2.56a1.58,1.58,0,0,1,1,1.43,2.24,2.24,0,0,1-.1.76Z"/><path class="cls-1" d="M268.27,17.75c-.26,2.27-1.32,3-3.36,3H254.48c-1.76,0-2.65-.58-2.65-2.28v-.76l1.33-11.13c.26-2.29,1.23-3,3.26-3h10.44c1.86,0,2.75.67,2.75,2.28a1.8,1.8,0,0,1-.11.76ZM262,73.65a1.65,1.65,0,0,1-1.67,1.42H246.69a1.2,1.2,0,0,1-1.32-1.23v-.19l5.22-45.35a1.56,1.56,0,0,1,1.59-1.42H265.8a1.21,1.21,0,0,1,1.33,1.23v.19Z"/><path class="cls-1" d="M294.37,72.51a2.41,2.41,0,0,1-1.24,1.9c-.79.29-3.63,1.42-9.64,1.42-4.87,0-8.23-1.32-10.43-3.61a13.06,13.06,0,0,1-3.11-9,75.16,75.16,0,0,1,.71-8l5.4-47.16c.18-1.52.36-2.19,1.87-2.48l13-2h.54c.9,0,1.59.38,1.59,1.42v.39l-5.65,48.48c-.1,1.15-.63,3.9-.63,5.89a4.28,4.28,0,0,0,.63,2.67,2.66,2.66,0,0,0,2.12,1,11.13,11.13,0,0,0,3-.29h.34c.89,0,1.07.67,1.07,1.33l.45,8Z"/><path class="cls-2" d="M311.6,44.25,343,30.62V20.54h0c10.09-1.56,18.2-6.33,25.23-14.09v0l31.37,25.61V0h-88Z"/><path class="cls-3" d="M343,73.33H368.2V6.45h0c-7,7.75-15.14,12.53-25.23,14.09h0v10.1L311.58,44.24v9.85L343,40.33V30.6l10.09-4.4v9.72L343,40.32v9.6l10.05-4.4v9.63L343,59.55V49.94L311.58,63.71v9.62L343,59.56Z"/><polygon class="cls-4" points="343 49.93 343.01 49.92 343.01 40.32 342.98 40.33 342.98 40.33 311.58 54.09 311.58 63.71 343 49.94 343 49.93"/><polygon class="cls-4" points="343.01 59.55 311.58 73.33 343.01 73.33 343.01 59.55"/><polygon class="cls-4" points="343.01 40.32 353.06 35.92 353.06 26.23 342.97 30.64 342.97 40.33 343.01 40.32"/><polygon class="cls-5" points="343.01 40.32 343.01 40.32 342.97 40.33 342.97 40.33 343.01 40.32"/><polygon class="cls-4" points="343 49.94 343 59.56 353.06 55.14 353.06 45.53 343.01 49.92 343.01 49.94 343 49.94"/><polygon class="cls-5" points="343 49.94 343.01 49.94 343.01 49.92 343 49.93 343 49.94"/><polygon class="cls-4" points="368.23 73.33 399.58 73.33 399.58 32.07 368.2 6.45 368.23 73.33"/><polygon class="cls-5" points="368.2 73.33 368.23 73.33 368.2 6.45 368.2 73.33"/><rect class="cls-6" x="311.6" y="87.99" width="87.99" height="0.02"/><polygon class="cls-7" points="368.23 73.33 368.2 73.33 343 73.33 311.6 73.33 311.6 87.99 399.58 87.99 399.58 73.33 368.23 73.33"/><line class="cls-6" x1="368.23" y1="73.33" x2="368.2" y2="73.33"/><path class="cls-1" d="M191.59,177.52a3.81,3.81,0,0,0,.83,2.56,3.09,3.09,0,0,0,2.51,1,4.41,4.41,0,0,0,1.9-.43,5,5,0,0,0,1.58-1.18,6.21,6.21,0,0,0,1.05-1.74,5.89,5.89,0,0,0,.41-2.09,3.55,3.55,0,0,0-.91-2.58,3.32,3.32,0,0,0-2.55-1,4.43,4.43,0,0,0-1.95.44,4.81,4.81,0,0,0-1.52,1.16,5.13,5.13,0,0,0-1,1.73,6.85,6.85,0,0,0-.37,2.1m11.06-15.74h3.4l-4.24,21.76h-3.2l.37-2.19h-.07a5.83,5.83,0,0,1-2.17,1.87,6.12,6.12,0,0,1-2.87.66,6.32,6.32,0,0,1-2.39-.43,5,5,0,0,1-1.84-1.23,5.41,5.41,0,0,1-1.13-1.89,6.42,6.42,0,0,1-.38-2.41,9.92,9.92,0,0,1,.62-3.35,8.44,8.44,0,0,1,1.62-2.72,7.77,7.77,0,0,1,2.44-1.85,7,7,0,0,1,3.08-.68A5.82,5.82,0,0,1,199,170a4.35,4.35,0,0,1,1.73,1.92h.07Z"/><path class="cls-1" d="M217,175.26a2.52,2.52,0,0,0,0-.37,2,2,0,0,0,0-.35,2.5,2.5,0,0,0-.76-1.9,3,3,0,0,0-2.23-.78,4,4,0,0,0-1.61.32,4.62,4.62,0,0,0-1.27.82,5,5,0,0,0-.9,1.11,4.27,4.27,0,0,0-.49,1.15Zm-7.53,2.43a1.48,1.48,0,0,0,0,.31,2.83,2.83,0,0,0,.25,1.27,2.93,2.93,0,0,0,.74,1,4,4,0,0,0,1.15.66,4.11,4.11,0,0,0,1.42.25,4.87,4.87,0,0,0,2.29-.5,6.1,6.1,0,0,0,1.69-1.32l1.91,1.82a8.37,8.37,0,0,1-6.31,2.75,7.67,7.67,0,0,1-2.58-.41,5.54,5.54,0,0,1-2-1.2,5.37,5.37,0,0,1-1.33-1.91,6.52,6.52,0,0,1-.44-2.62,8.56,8.56,0,0,1,.67-3.32,8.73,8.73,0,0,1,1.73-2.7,7.81,7.81,0,0,1,2.59-1.79,8,8,0,0,1,3.25-.65,7.3,7.3,0,0,1,2.3.34,5.12,5.12,0,0,1,1.8,1,4.46,4.46,0,0,1,1.19,1.73,6.44,6.44,0,0,1,.39,2.42c0,.31-.05.73-.11,1.28a11.85,11.85,0,0,1-.29,1.55Z"/><path class="cls-1" d="M236,166.07l-1.08,5.44h3.7a5.77,5.77,0,0,0,1.27-.15,4.38,4.38,0,0,0,1.26-.53,3.38,3.38,0,0,0,.94-1,3,3,0,0,0,.38-1.48,1.83,1.83,0,0,0-.9-1.78,4.72,4.72,0,0,0-2.33-.52Zm-1.68,8.41-1.14,6.06h3.54a8.26,8.26,0,0,0,1.82-.19,4.86,4.86,0,0,0,1.55-.59,2.87,2.87,0,0,0,1.08-1.08,3.11,3.11,0,0,0,.42-1.63,2.17,2.17,0,0,0-.86-1.89,4.11,4.11,0,0,0-2.54-.68Zm5.88-11.35a10.12,10.12,0,0,1,2.12.23,6.14,6.14,0,0,1,1.88.76,4.37,4.37,0,0,1,1.35,1.39,4,4,0,0,1,.47,2.09,4.84,4.84,0,0,1-1.27,3.39,6.43,6.43,0,0,1-3.27,1.82v.06a4.46,4.46,0,0,1,2.71,1.4,4.07,4.07,0,0,1,1,2.95,5.73,5.73,0,0,1-.68,2.74,5.83,5.83,0,0,1-1.85,2,8.86,8.86,0,0,1-2.77,1.2,14.75,14.75,0,0,1-3.5.4h-7.24l4-20.41Z"/><path class="cls-1" d="M256.48,177.2q-1,0-2,.06a9.71,9.71,0,0,0-1.93.34,3.94,3.94,0,0,0-1.46.74,1.63,1.63,0,0,0-.58,1.28,1.72,1.72,0,0,0,.17.82,1.5,1.5,0,0,0,.5.53,2.13,2.13,0,0,0,.71.29,3.86,3.86,0,0,0,.84.09,4,4,0,0,0,1.46-.27,3.63,3.63,0,0,0,1.19-.7,4.21,4.21,0,0,0,.85-1,4.82,4.82,0,0,0,.51-1.29l.19-.86Zm.77-2.43c0-.22.06-.4.08-.53s0-.25,0-.36a1.62,1.62,0,0,0-.63-1.44,3.4,3.4,0,0,0-1.91-.43,6.3,6.3,0,0,0-2.1.39,7.9,7.9,0,0,0-1.92,1l-1.27-2.28a10.53,10.53,0,0,1,5.83-1.79,9.09,9.09,0,0,1,1.94.22,5.16,5.16,0,0,1,1.72.71,3.51,3.51,0,0,1,1.62,3.25,5.33,5.33,0,0,1,0,.64c0,.25-.06.47-.09.66l-1.11,5.62c-.11.54-.19,1.1-.28,1.67a12.6,12.6,0,0,0-.11,1.45h-3.13a8.29,8.29,0,0,1,.21-1.65H256a5.65,5.65,0,0,1-4.53,1.93,7.26,7.26,0,0,1-1.5-.17,4.13,4.13,0,0,1-1.4-.59,3.13,3.13,0,0,1-1-1.12,3.55,3.55,0,0,1-.39-1.78,4.13,4.13,0,0,1,1-2.74,6,6,0,0,1,2.39-1.65,11.89,11.89,0,0,1,3.21-.8,32,32,0,0,1,3.49-.2"/><path class="cls-1" d="M268.24,171.86a6.27,6.27,0,0,1,1.87-1.83,4.91,4.91,0,0,1,2.68-.71,5.21,5.21,0,0,1,2,.35,4.11,4.11,0,0,1,1.4.92A3.6,3.6,0,0,1,277,172a5,5,0,0,1,.25,1.65,6.39,6.39,0,0,1-.14,1.3l-1.67,8.62h-3.38l1.45-7.61q.08-.36.12-.69c0-.23,0-.47.05-.7a2.7,2.7,0,0,0-.46-1.63,2,2,0,0,0-1.77-.7,3.22,3.22,0,0,0-1.48.32,4.2,4.2,0,0,0-1.13.85,5.25,5.25,0,0,0-1.23,2.55l-1.49,7.61h-3.37l2.09-10.87c.09-.37.17-.84.27-1.42s.17-1.09.22-1.55h3.17c0,.21-.07.54-.14,1s-.11.85-.17,1.16Z"/><path class="cls-1" d="M290.84,173.62a3.06,3.06,0,0,0-1.14-1.08,3.26,3.26,0,0,0-1.69-.45,4.54,4.54,0,0,0-2,.44,4.78,4.78,0,0,0-1.59,1.19,5.49,5.49,0,0,0-1.05,1.73,5.72,5.72,0,0,0-.41,2.05,4.51,4.51,0,0,0,.18,1.38,3.41,3.41,0,0,0,.6,1.15,3.17,3.17,0,0,0,1.09.81,3.82,3.82,0,0,0,1.59.31,4.38,4.38,0,0,0,2.09-.45,7.1,7.1,0,0,0,1.47-1.11l1.91,2a9.55,9.55,0,0,1-2.51,1.71,7.5,7.5,0,0,1-3.22.65,8,8,0,0,1-2.71-.43,5.92,5.92,0,0,1-2.08-1.23,5,5,0,0,1-1.33-1.89,6,6,0,0,1-.43-2.44,9.21,9.21,0,0,1,2.41-6,8.6,8.6,0,0,1,2.7-1.9,8.46,8.46,0,0,1,3.48-.71,7.5,7.5,0,0,1,2.93.57,4,4,0,0,1,2.12,1.77Z"/><path class="cls-1" d="M305.33,175.68a3.62,3.62,0,0,0-.9-2.58,3.37,3.37,0,0,0-2.59-1,4.32,4.32,0,0,0-2,.45,4.45,4.45,0,0,0-1.52,1.2,5.74,5.74,0,0,0-1,1.74,6.19,6.19,0,0,0-.38,2.08,3.56,3.56,0,0,0,.87,2.57,3.26,3.26,0,0,0,2.58,1,4.56,4.56,0,0,0,3.53-1.62,6.16,6.16,0,0,0,1-1.75,7.35,7.35,0,0,0,.37-2.1m-5.13,8.23a7.84,7.84,0,0,1-2.65-.43,6.5,6.5,0,0,1-2.11-1.24,5.67,5.67,0,0,1-1.36-1.9,5.78,5.78,0,0,1-.47-2.46,9.48,9.48,0,0,1,.65-3.23,8.65,8.65,0,0,1,1.74-2.73,8.28,8.28,0,0,1,6.13-2.6,7.89,7.89,0,0,1,2.68.44,6.24,6.24,0,0,1,2.1,1.22,5.43,5.43,0,0,1,1.36,1.91,5.89,5.89,0,0,1,.48,2.43,9.59,9.59,0,0,1-.66,3.29,8.7,8.7,0,0,1-1.74,2.74,8.35,8.35,0,0,1-2.67,1.87,8.58,8.58,0,0,1-3.48.69"/><polygon class="cls-1" points="310.67 183.53 314.62 163.13 327.49 163.13 326.87 166.24 317.49 166.24 316.47 171.52 325.42 171.52 324.83 174.52 315.89 174.52 314.76 180.36 324.96 180.36 324.35 183.53 310.67 183.53"/><path class="cls-1" d="M328.58,179.56a2.94,2.94,0,0,0,1.26,1.28,3.87,3.87,0,0,0,1.88.45,3.44,3.44,0,0,0,1.89-.46,1.48,1.48,0,0,0,.73-1.27,1.16,1.16,0,0,0-.54-1.11,7.82,7.82,0,0,0-1.79-.76c-.65-.22-1.21-.43-1.7-.65a4.59,4.59,0,0,1-1.21-.78,2.68,2.68,0,0,1-.72-1,3.3,3.3,0,0,1-.23-1.35,3.74,3.74,0,0,1,.51-1.84,4,4,0,0,1,1.3-1.44,5.83,5.83,0,0,1,1.9-.94,8.33,8.33,0,0,1,2.4-.34,6.85,6.85,0,0,1,2.91.6,4.51,4.51,0,0,1,2,1.8l-2.66,1.56a3.06,3.06,0,0,0-1-1,3,3,0,0,0-1.63-.39,4.31,4.31,0,0,0-.88.09,2.36,2.36,0,0,0-.8.27,1.86,1.86,0,0,0-.58.5,1.49,1.49,0,0,0-.23.78,1.06,1.06,0,0,0,.56,1,7.61,7.61,0,0,0,1.64.63,7.38,7.38,0,0,1,3,1.49,3.26,3.26,0,0,1,1,2.66,4.33,4.33,0,0,1-.52,2,4.93,4.93,0,0,1-1.35,1.49,5.81,5.81,0,0,1-1.91.9,8.63,8.63,0,0,1-2.3.31,7.11,7.11,0,0,1-3.6-.8,5.48,5.48,0,0,1-2.05-2Z"/><path class="cls-1" d="M339.91,172.46l.54-2.76h2.39l.77-4H347l-.76,4h3.12l-.55,2.76h-3l-1.34,6.48a3.89,3.89,0,0,0-.1.8,1.12,1.12,0,0,0,.43,1,2.13,2.13,0,0,0,1.2.29c.24,0,.46,0,.67-.05a5.84,5.84,0,0,0,.63-.13l-.25,2.57a5,5,0,0,1-1,.27,7.73,7.73,0,0,1-1.09.1,4.32,4.32,0,0,1-3.1-.88,3,3,0,0,1-.89-2.31,5.54,5.54,0,0,1,.07-.87,7.06,7.06,0,0,1,.14-.88l1.28-6.42Z"/><path class="cls-1" d="M358.45,177.2q-1,0-2,.06a9.71,9.71,0,0,0-1.93.34,3.86,3.86,0,0,0-1.46.74,1.6,1.6,0,0,0-.58,1.28,1.72,1.72,0,0,0,.17.82,1.5,1.5,0,0,0,.5.53,2.13,2.13,0,0,0,.71.29,3.86,3.86,0,0,0,.84.09,4.08,4.08,0,0,0,1.47-.27,3.59,3.59,0,0,0,1.18-.7,3.8,3.8,0,0,0,.85-1,4.82,4.82,0,0,0,.51-1.29l.19-.86Zm.77-2.43c0-.22.07-.4.08-.53s0-.25,0-.36a1.62,1.62,0,0,0-.63-1.44,3.4,3.4,0,0,0-1.91-.43,6.3,6.3,0,0,0-2.1.39,7.9,7.9,0,0,0-1.92,1l-1.27-2.28a10.53,10.53,0,0,1,5.83-1.79,9.09,9.09,0,0,1,1.94.22,5.16,5.16,0,0,1,1.72.71,3.68,3.68,0,0,1,1.2,1.28,3.76,3.76,0,0,1,.43,2c0,.18,0,.39-.05.64s-.06.47-.08.66l-1.12,5.62c-.11.54-.19,1.1-.28,1.67a12.6,12.6,0,0,0-.11,1.45h-3.12a7.57,7.57,0,0,1,.2-1.65H358a5.67,5.67,0,0,1-4.54,1.93,7.34,7.34,0,0,1-1.5-.17,4,4,0,0,1-1.39-.59,3.06,3.06,0,0,1-1-1.12,3.56,3.56,0,0,1-.38-1.78,4.07,4.07,0,0,1,1-2.74,6.09,6.09,0,0,1,2.39-1.65,12,12,0,0,1,3.21-.8,32.11,32.11,0,0,1,3.49-.2"/><path class="cls-1" d="M368.44,177.52a3.81,3.81,0,0,0,.83,2.56,3.1,3.1,0,0,0,2.51,1,4.41,4.41,0,0,0,1.9-.43,4.85,4.85,0,0,0,1.58-1.18,6.19,6.19,0,0,0,1-1.74,5.68,5.68,0,0,0,.41-2.09,3.54,3.54,0,0,0-.89-2.58,3.34,3.34,0,0,0-2.56-1,4.32,4.32,0,0,0-1.94.44,4.63,4.63,0,0,0-1.53,1.16,5.13,5.13,0,0,0-1,1.73,7.17,7.17,0,0,0-.37,2.1m11.06-15.74h3.4l-4.24,21.76h-3.19l.37-2.19h-.08a5.91,5.91,0,0,1-2.17,1.87,6.12,6.12,0,0,1-2.87.66,6.32,6.32,0,0,1-2.39-.43,4.85,4.85,0,0,1-1.83-1.23,5.43,5.43,0,0,1-1.14-1.89,6.23,6.23,0,0,1-.37-2.41,9.45,9.45,0,0,1,.62-3.35,8.41,8.41,0,0,1,1.61-2.72,7.77,7.77,0,0,1,2.44-1.85,7,7,0,0,1,3.08-.68,5.82,5.82,0,0,1,3.06.71,4.41,4.41,0,0,1,1.73,1.92h.06Z"/><path class="cls-1" d="M394.76,175.68a3.57,3.57,0,0,0-.9-2.58,3.34,3.34,0,0,0-2.58-1,4.33,4.33,0,0,0-2,.45,4.55,4.55,0,0,0-1.52,1.2,5.74,5.74,0,0,0-1,1.74,6.19,6.19,0,0,0-.38,2.08,3.61,3.61,0,0,0,.88,2.57,3.24,3.24,0,0,0,2.58,1,4.61,4.61,0,0,0,2-.44,4.76,4.76,0,0,0,1.52-1.18,5.91,5.91,0,0,0,1-1.75,6.73,6.73,0,0,0,.38-2.1m-5.12,8.23a7.85,7.85,0,0,1-2.66-.43,6.35,6.35,0,0,1-2.1-1.24,5.64,5.64,0,0,1-1.83-4.36,9,9,0,0,1,.65-3.23,8.39,8.39,0,0,1,4.4-4.62,8.3,8.3,0,0,1,3.46-.71,7.89,7.89,0,0,1,2.68.44,6.14,6.14,0,0,1,2.1,1.22,5.45,5.45,0,0,1,1.37,1.91,6.05,6.05,0,0,1,.47,2.43,9.36,9.36,0,0,1-.65,3.29,8.88,8.88,0,0,1-1.74,2.74,8.39,8.39,0,0,1-2.68,1.87,8.53,8.53,0,0,1-3.47.69"/></g></g></svg>